<?xml version="1.0" encoding="utf-8"?>
<!-- Generator: Adobe Illustrator 22.1.0, SVG Export Plug-In . SVG Version: 6.00 Build 0)  -->
<svg version="1.1" xmlns="http://www.w3.org/2000/svg" xmlns:xlink="http://www.w3.org/1999/xlink" x="0px" y="0px"
	 viewBox="0 0 1464 282" style="enable-background:new 0 0 1464 282;" xml:space="preserve">
<style type="text/css">
	.st0{fill:#7474EC;}
	.st1{fill:#FFFFFF;}
</style>
<g id="GUIDES">
</g>
<g id="_x32__COlor_K_x2F_O">
	<path class="st0" d="M20.2,146.2 M75.8,160.1c0-5.1,0-10.2,0-15.3c0-8.8,0-17.7,0-26.5c0-6.1,0.5-12.5-1.3-18.3
		C70.6,87.9,58.6,79.8,46,80.7c-12.6,0.9-23.4,10.7-25.6,23.2c-0.4,2.4-0.4,4.9-0.4,7.3c0,3.2,0,6.4,0,9.6c0,8.9,0,17.8,0,26.7
		c0,3.3,0,6.5,0,9.8c0,2.3,0,4.5,0.3,6.8c1.8,12.6,12.4,22.8,25.1,23.9c12.6,1.1,24.7-6.7,28.9-18.7
		C75.3,166.3,75.8,163.2,75.8,160.1z M149.5,181.5c0-1.7,0-3.5,0-5.2c0-4.5,0-9,0-13.5c0-6.1,0-12.3,0-18.4c0-6.7,0-13.4,0-20.1
		c0-6.1,0-12.3,0-18.4c0-4.5,0-9.1,0-13.6c0-1.8,0-3.5,0-5.3c0-9.1-4.5-17.6-11.9-22.9c-7.5-5.3-17.4-6.5-26-3.2
		c-8.4,3.3-14.9,10.6-17.1,19.3c-0.8,3.2-0.8,6.5-0.8,9.8c0,3.9,0,7.9,0,11.8c0,5.8,0,11.7,0,17.5c0,6.7,0,13.3,0,20
		c0,6.4,0,12.8,0,19.1c0,5,0,10.1,0,15.1c0,2.5,0,5.1,0,7.6c0,7,2.4,13.7,7.1,18.9c6.1,6.8,15.3,10.3,24.4,9.1
		c9-1.2,17-6.8,21.2-14.9C148.4,190.4,149.5,186,149.5,181.5z M223.2,200.9c0-2,0-4.1,0-6.1c0-5.4,0-10.7,0-16.1c0-7.5,0-15,0-22.5
		c0-8.5,0-17,0-25.5c0-8.3,0-16.7,0-25c0-7,0-14,0-21.1c0-4.5,0-9.1,0-13.6c0-4.5-0.2-8.8-1.8-13.1c-4.2-10.9-15-18.2-26.7-18
		c-11.8,0.2-22.5,8.3-26.1,19.5c-1.3,4-1.3,7.9-1.3,12c0,4.7,0,9.3,0,14c0,7.1,0,14.2,0,21.3c0,8.4,0,16.7,0,25.1c0,8.5,0,17,0,25.5
		c0,7.4,0,14.9,0,22.3c0,5.2,0,10.5,0,15.7c0,2.4-0.1,4.8,0,7.2c0.6,11.7,9,22.1,20.3,25.3c11.4,3.2,23.8-1.3,30.5-11
		C221.4,212.1,223.2,206.5,223.2,200.9z"/>
	<path class="st1" d="M477.2,159.9c2,17.9,13.5,29.4,31.6,29.4c11.7,0,21.7-5.8,26-15.3c0.2-0.5,0.7-0.8,1.2-0.8h23.5
		c0.9,0,1.5,0.9,1.3,1.7c-7.2,21.5-26.9,36.6-52.6,36.6c-34.2,0-56.4-25.5-56.4-59.2c0-32.9,22.6-59,56.2-59s55.5,25.5,55.5,58.6
		c0,2.7-0.1,5.3-0.2,6.8c0,0.7-0.6,1.3-1.3,1.3H477.2z M477.6,140.8h60.1c-2.2-15.7-13.1-26.3-29.8-26.3
		C491.1,114.4,480.2,125.3,477.6,140.8z"/>
	<path class="st1" d="M706,178.4c0-19.2,13.5-31.6,43.3-35.7l32.7-4.6v-1.7c0-13.7-8.7-20.7-24.2-20.7c-13.7,0-21.6,5.9-23.8,15.7
		c-0.1,0.6-0.7,1.1-1.3,1.1l-22.7,0c-0.8,0-1.4-0.7-1.3-1.5c2.7-19.2,16.3-36.6,49.7-36.6c33.1,0,48.8,16.3,48.8,42.2v52v20
		c0,0.7-0.6,1.3-1.3,1.3h-20.2c-0.7,0-1.3-0.6-1.3-1.3v-13.5c-7.6,11.5-20.7,17.4-38.8,17.4C717.5,212.5,706,197.7,706,178.4z
		 M751.9,161.4c-15.9,2.4-21.1,8.3-21.1,16.1c0,10.7,7.6,14.8,20,14.8c20.9,0,31.1-13.1,31.1-28.3v-7.2L751.9,161.4z"/>
	<path class="st1" d="M668.7,95.9h21.3c0.7,0,1.3,0.6,1.3,1.3v106.9c0,29.8-19.2,52.5-54,52.5c-33,0-48.5-20.5-51.6-37.8
		c-0.1-0.8,0.5-1.6,1.3-1.6h23.4c0.6,0,1.1,0.4,1.3,0.9c2.7,8.4,10.3,16.3,26.1,16.3c17.9,0,27.7-10.9,27.7-26.8V190
		c-6.3,9.8-18.3,17.4-35.7,17.4c-32.2,0-52-25.9-52-57.1c0-31.1,19.8-57.1,52-57.1c17.4,0,30.3,7,37.7,18.7V97.2
		C667.4,96.5,668,95.9,668.7,95.9z M635,116.2c-18.7,0-31.4,14.4-31.4,34.2c0,19.6,12.6,34.2,31.4,34.2c19.2,0,31.6-14.6,31.6-34.2
		C666.6,130.5,654.1,116.2,635,116.2z"/>
	<path class="st1" d="M850.6,254.2h-23.3c-0.7,0-1.3-0.6-1.3-1.3V97.2c0-0.7,0.6-1.3,1.3-1.3h21.3c0.7,0,1.3,0.6,1.3,1.3V112
		c7.4-11.5,20.7-18.7,38.1-18.7c33.5,0,52.5,26.8,52.5,59.2c0,32.2-18.9,59-52.5,59c-17.4,0-29.8-7.6-36.1-17.4v58.8
		C851.9,253.6,851.4,254.2,850.6,254.2z M882.9,188.7c19.6,0,31.8-15.9,31.8-36.1c0-20.9-12.2-36.8-31.8-36.8
		c-19.8,0-31.8,15.9-31.8,36.8C851.1,172.8,863,188.7,882.9,188.7z"/>
	<path class="st1" d="M983.6,108.1c5.2-7.6,16.1-14.8,32.9-14.8c27.4,0,42,18.3,42,44.6v69.7c0,0.7-0.6,1.3-1.3,1.3h-23.3
		c-0.7,0-1.3-0.6-1.3-1.3v-69.1c0-12.6-10.1-23.1-22.7-23c-16.1,0.1-26.3,10.3-26.3,28.1v64c0,0.7-0.6,1.3-1.3,1.3H959
		c-0.7,0-1.3-0.6-1.3-1.3V46.9c0-0.7,0.6-1.3,1.3-1.3h23.3c0.7,0,1.3,0.6,1.3,1.3V108.1z"/>
	<path class="st1" d="M1072.7,152.5c0-31.8,22.6-59.2,58.6-59.2c36.1,0,58.8,27.4,58.8,59.2c0,31.8-22.6,59-58.8,59
		C1095.4,211.5,1072.7,184.3,1072.7,152.5z M1131.3,188.7c18.9,0,32.9-14.4,32.9-36.1c0-22-13.9-36.4-32.9-36.4
		c-18.7,0-32.7,14.4-32.7,36.4C1098.7,174.3,1112.6,188.7,1131.3,188.7z"/>
	<path class="st1" d="M1227.2,110.9c4.8-8.9,16.3-17.6,34.8-17.6c27.4,0,42,18.3,42,44.6v69.7c0,0.7-0.6,1.3-1.3,1.3h-23.3
		c-0.7,0-1.3-0.6-1.3-1.3v-69.1c0-12.6-10.1-23.1-22.7-23c-16.1,0.1-26.3,10.3-26.3,27.9v64.2c0,0.7-0.6,1.3-1.3,1.3h-23.3
		c-0.7,0-1.3-0.6-1.3-1.3V97.2c0-0.7,0.6-1.3,1.3-1.3h21.3c0.7,0,1.3,0.6,1.3,1.3V110.9z"/>
	<path class="st1" d="M1344.8,159.9c2,17.9,13.5,29.4,31.6,29.4c11.7,0,21.7-5.8,26-15.3c0.2-0.5,0.7-0.8,1.2-0.8h23.5
		c0.9,0,1.5,0.9,1.3,1.7c-7.2,21.5-26.9,36.6-52.6,36.6c-34.2,0-56.4-25.5-56.4-59.2c0-32.9,22.6-59,56.2-59
		c33.5,0,55.5,25.5,55.5,58.6c0,2.7-0.1,5.3-0.2,6.8c0,0.7-0.6,1.3-1.3,1.3H1344.8z M1345.2,140.8h60.1
		c-2.2-15.7-13.1-26.3-29.8-26.3C1358.7,114.4,1347.8,125.3,1345.2,140.8z"/>
	<path id="m_3_" class="st1" d="M435.1,67.9h-18.8c-1.5,0-1.8-0.1-2.4,1.2l-49.1,103.8c-0.1,0.2-0.3,0.2-0.4,0L315.1,69.1
		c-0.6-1.3-0.9-1.2-2.4-1.2h-18.8c-0.5,0-0.9,0.4-0.9,0.8v141c0,0.6,0.5,1,1.1,1h22.6c0.6,0,1.1-0.5,1.1-1v-79.3
		c0-0.2,0.3-0.3,0.4-0.1l37,78.7c0.7,1.7,0.5,1.8,2.3,1.8h14.1c1.9,0,1.6-0.1,2.3-1.8l36.8-79.6c0.1-0.2,0.4-0.1,0.4,0.1v80.2
		c0,0.6,0.5,1,1.1,1h22.6c0.6,0,1.1-0.5,1.1-1v-141C436,68.3,435.6,67.9,435.1,67.9z"/>
</g>
</svg>
